<svg xmlns="http://www.w3.org/2000/svg" viewBox="0 0 800 450">
  <defs>
    <linearGradient id="martesumeptimizerv10svg_bg" x1="0" y1="0" x2="1" y2="1">
      <stop offset="0%" stop-color="#0D0A1A"/>
      <stop offset="100%" stop-color="#080510"/>
    </linearGradient>
    <filter id="martesumeptimizerv10svg_g"><feGaussianBlur stdDeviation="5"/><feComposite in="SourceGraphic" in2="blur" operator="over"/></filter>
    <style>
      @keyframes martesumeptimizerv10svg_draw { 0%{stroke-dashoffset:800} 100%{stroke-dashoffset:0} }
      @keyframes martesumeptimizerv10svg_pulse { 0%,100%{opacity:0.4} 50%{opacity:1} }
      @keyframes martesumeptimizerv10svg_bar { 0%{width:0} 50%{width:100%} 100%{width:100%} }
      .martesumeptimizerv10svg_line { stroke-dasharray:800; animation: martesumeptimizerv10svg_draw 4s ease-out forwards; }
      .martesumeptimizerv10svg_dot { animation: martesumeptimizerv10svg_pulse 2.5s ease-in-out infinite; }
    </style>
  </defs>
  <rect width="800" height="450" fill="url(#martesumeptimizerv10svg_bg)"/>
  
  <!-- Header -->
  <g transform="translate(30,30)">
    <circle cx="6" cy="6" r="5" fill="#9333EA" filter="url(#martesumeptimizerv10svg_g)"/>
    <text x="20" y="10" font-family="'JetBrains Mono',monospace" font-size="11" fill="#9333EA" font-weight="700" letter-spacing="2">RESUME OPTIMIZATION</text>
    <line x1="0" y1="20" x2="740" y2="20" stroke="#7E22CE" stroke-width="1"/>
  </g>
  
  <!-- Signal Chart -->
  <g transform="translate(30,60)">
    <rect x="0" y="0" width="470" height="160" rx="8" fill="#1D0D35" stroke="#7E22CE" stroke-width="1"/>
    <polyline class="martesumeptimizerv10svg_line" points="20,115 60,80 100,111 140,61 180,92 220,123 260,82 300,62 340,100 380,113 420,53 460,59 500,81 540,75 580,86 620,87 660,61 700,88" fill="none" stroke="#9333EA" stroke-width="2.5" filter="url(#martesumeptimizerv10svg_g)"/>
    <polyline class="martesumeptimizerv10svg_line" points="20,105 60,117 100,77 140,110 180,87 220,103 260,119 300,67 340,82 380,98 420,124 460,64 500,117 540,105 580,95 620,92 660,112 700,63" fill="none" stroke="#C084FC" stroke-width="1.5" opacity="0.5" style="animation-delay:0.5s"/>
    <line x1="0" y1="15" x2="470" y2="15" stroke="#7E22CE" stroke-width="0.5" opacity="0.3"/>
    <line x1="0" y1="50" x2="470" y2="50" stroke="#7E22CE" stroke-width="0.5" opacity="0.3"/>
    <line x1="0" y1="85" x2="470" y2="85" stroke="#7E22CE" stroke-width="0.5" opacity="0.3"/>
    <line x1="0" y1="120" x2="470" y2="120" stroke="#7E22CE" stroke-width="0.5" opacity="0.3"/>
    <line x1="0" y1="155" x2="470" y2="155" stroke="#7E22CE" stroke-width="0.5" opacity="0.3"/>
    <text x="10" y="155" font-family="monospace" font-size="9" fill="#64748B">Real-time telemetry — 500ms sampling interval</text>
  </g>
  
  <!-- Architecture Blocks -->
  <g transform="translate(530,60)">
    <text x="0" y="-5" font-family="monospace" font-size="10" fill="#C084FC" font-weight="700">ARCHITECTURE</text>
    
      <rect x="0" y="5" width="240" height="40" rx="6" fill="#1D0D35" stroke="#9333EA" stroke-width="1" opacity="0.8"/>
      <text x="120" y="30" text-anchor="middle" font-family="monospace" font-size="10" fill="#C084FC">Semantic Gap Analysis</text>
    
      <rect x="0" y="55" width="240" height="40" rx="6" fill="#1D0D35" stroke="#9333EA" stroke-width="1" opacity="0.8"/>
      <text x="120" y="80" text-anchor="middle" font-family="monospace" font-size="10" fill="#C084FC">ATS Matching</text>
    
      <rect x="0" y="105" width="240" height="40" rx="6" fill="#1D0D35" stroke="#9333EA" stroke-width="1" opacity="0.8"/>
      <text x="120" y="130" text-anchor="middle" font-family="monospace" font-size="10" fill="#C084FC">NLP</text>
    
  </g>
  
  <!-- Metrics Panel -->
  <g transform="translate(30,240)">
    <text x="0" y="0" font-family="monospace" font-size="11" fill="#E9D5FF" font-weight="700" letter-spacing="2">PERFORMANCE METRICS</text>
    <rect x="0" y="10" width="740" height="100" rx="8" fill="#1D0D35" stroke="#7E22CE" stroke-width="1"/>
    
      <text x="20" y="38" font-family="monospace" font-size="10" fill="#94A3B8">Accuracy</text>
      <rect class="martesumeptimizerv10svg_dot" x="120" y="27" width="470" height="14" rx="3" fill="#9333EA" opacity="0.5" style="animation-delay:0s"/>
      <text x="600" y="38" font-family="monospace" font-size="11" fill="#9333EA" font-weight="700">94%</text>
      <text x="20" y="66" font-family="monospace" font-size="10" fill="#94A3B8">Latency</text>
      <rect class="martesumeptimizerv10svg_dot" x="120" y="55" width="461" height="14" rx="3" fill="#9333EA" opacity="0.5" style="animation-delay:0.3s"/>
      <text x="591" y="66" font-family="monospace" font-size="11" fill="#9333EA" font-weight="700">7ms</text>
      <text x="20" y="94" font-family="monospace" font-size="10" fill="#94A3B8">Throughput</text>
      <rect class="martesumeptimizerv10svg_dot" x="120" y="83" width="196" height="14" rx="3" fill="#9333EA" opacity="0.5" style="animation-delay:0.6s"/>
      <text x="326" y="94" font-family="monospace" font-size="11" fill="#9333EA" font-weight="700">196/s</text>
  </g>
  
  <!-- Bottom Title -->
  <g transform="translate(30,410)">
    <line x1="0" y1="-8" x2="740" y2="-8" stroke="#7E22CE" stroke-width="1"/>
    <text x="0" y="12" font-family="'Inter',sans-serif" font-size="16" font-weight="800" fill="#F8FAFC">AI Smart ATS Optimizer</text>
    <text x="740" y="12" text-anchor="end" font-family="monospace" font-size="11" fill="#9333EA">Semantic Gap Analysis • ATS Matching • NLP</text>
  </g>
</svg>